<svg width="7" height="7" viewBox="0 0 7 7" fill="none" xmlns="http://www.w3.org/2000/svg">
<path d="M6.67153 3.76232C6.6912 4.1593 6.62986 4.55613 6.49126 4.92866C6.35266 5.30118 6.13969 5.6416 5.86532 5.92918C5.55784 6.24808 5.1865 6.49846 4.77559 6.66396C4.36468 6.82945 3.92346 6.90633 3.48079 6.88956C3.03529 6.89355 2.5935 6.80844 2.18137 6.63925C1.76924 6.47005 1.39508 6.22018 1.0809 5.90432C0.766723 5.58845 0.518857 5.21297 0.351866 4.79994C0.184876 4.38691 0.102132 3.94467 0.108502 3.49921C0.102183 3.05373 0.184955 2.61148 0.351957 2.19845C0.518959 1.78541 0.766819 1.40991 1.08098 1.09402C1.39514 0.778121 1.76928 0.528195 2.18139 0.358923C2.5935 0.18965 3.03528 0.104445 3.48079 0.108313C3.93883 0.106929 4.39228 0.199535 4.8131 0.380402C5.20394 0.538832 5.55183 0.78734 5.82843 1.10569L5.25786 1.67669C5.04043 1.42078 4.76711 1.21824 4.45899 1.0847C4.15088 0.951165 3.8162 0.890201 3.48079 0.906514C3.14316 0.904768 2.80865 0.971179 2.49729 1.10177C2.18594 1.23237 1.90414 1.42445 1.66878 1.66653C1.43342 1.90861 1.24933 2.1957 1.12755 2.51061C1.00577 2.82551 0.948792 3.16176 0.960036 3.49921C0.951986 4.00465 1.09421 4.5011 1.36868 4.92561C1.64315 5.35011 2.0375 5.68355 2.50172 5.88364C2.96595 6.08373 3.47913 6.14146 3.9762 6.04951C4.47328 5.95756 4.93185 5.72007 5.29378 5.36716C5.62687 5.00823 5.81995 4.5416 5.83785 4.05226H3.48079V3.27256H6.62609C6.65583 3.43412 6.67104 3.59803 6.67153 3.76232Z" fill="white" stroke="white" stroke-width="0.2" stroke-miterlimit="10"/>
</svg>
