<svg width="7" height="7" viewBox="0 0 7 7" fill="none" xmlns="http://www.w3.org/2000/svg">
<path d="M5.82671 5.90781C5.19467 6.53794 4.3386 6.89178 3.44612 6.89178C2.55363 6.89178 1.69756 6.53794 1.06553 5.90781C0.752854 5.59112 0.507057 5.21479 0.342743 4.80119C0.178429 4.3876 0.0989566 3.94519 0.109051 3.50027C0.0989566 3.05535 0.178429 2.61294 0.342743 2.19935C0.507057 1.78575 0.752854 1.40942 1.06553 1.09273C1.37792 0.780255 1.74887 0.532457 2.15716 0.363522C2.56544 0.194587 3.00303 0.107833 3.44489 0.108225C3.88674 0.108617 4.32417 0.196148 4.73215 0.365807C5.14013 0.535466 5.51065 0.783922 5.82249 1.09695C6.13538 1.41281 6.38165 1.7883 6.54668 2.20114C6.71171 2.61398 6.79214 3.05576 6.78319 3.50027C6.79301 3.94516 6.71341 4.38749 6.54911 4.80104C6.38481 5.21459 6.13915 5.59095 5.82671 5.90781ZM1.68164 5.36409C2.14974 5.8314 2.78415 6.09386 3.44558 6.09386C4.10701 6.09386 4.74141 5.8314 5.20951 5.36409C5.44955 5.11834 5.63728 4.82647 5.76134 4.50612C5.88541 4.18577 5.94325 3.8436 5.93136 3.50027C5.94325 3.15694 5.88541 2.81477 5.76134 2.49442C5.63728 2.17407 5.44955 1.8822 5.20951 1.63645C4.74141 1.16914 4.10701 0.906685 3.44558 0.906685C2.78415 0.906685 2.14974 1.16914 1.68164 1.63645C1.44194 1.8824 1.25451 2.17432 1.13064 2.49464C1.00677 2.81496 0.949015 3.15704 0.960871 3.50027C0.949015 3.8435 1.00677 4.18558 1.13064 4.5059C1.25451 4.82622 1.44194 5.11814 1.68164 5.36409Z" fill="white" stroke="white" stroke-width="0.2" stroke-miterlimit="10"/>
</svg>
