<svg width="85" height="18" viewBox="0 0 85 18" fill="none" xmlns="http://www.w3.org/2000/svg">
<path d="M27.1658 4.71747C26.3231 4.72067 25.5002 4.97349 24.801 5.444C24.1019 5.91452 23.5578 6.58165 23.2375 7.36114C22.9172 8.14064 22.8351 8.99755 23.0015 9.8237C23.1678 10.6498 23.5753 11.4082 24.1723 12.0029C24.7693 12.5977 25.5292 13.0022 26.356 13.1655C27.1827 13.3287 28.0393 13.2433 28.8176 12.9201C29.5959 12.5968 30.2609 12.0502 30.7288 11.3493C31.1966 10.6484 31.4463 9.82452 31.4463 8.98179C31.4546 8.41813 31.3494 7.85856 31.137 7.33638C30.9246 6.8142 30.6094 6.34007 30.21 5.94222C29.8106 5.54437 29.3353 5.23091 28.8123 5.02051C28.2894 4.81011 27.7294 4.70705 27.1658 4.71747ZM27.1658 11.5663C26.6468 11.6033 26.1287 11.4832 25.6789 11.2216C25.2291 10.96 24.8685 10.5691 24.644 10.0997C24.4196 9.63032 24.3416 9.10421 24.4203 8.5899C24.499 8.07558 24.7308 7.59687 25.0853 7.2161C25.4399 6.83532 25.9009 6.57012 26.4083 6.45503C26.9158 6.33993 27.4461 6.38027 27.9302 6.57079C28.4144 6.76131 28.83 7.09318 29.1229 7.52321C29.4158 7.95323 29.5725 8.46148 29.5725 8.98179C29.5883 9.31049 29.5381 9.63902 29.4249 9.94804C29.3118 10.2571 29.138 10.5403 28.9137 10.7812C28.6895 11.022 28.4193 11.2155 28.1191 11.3504C27.8189 11.4852 27.4948 11.5586 27.1658 11.5663ZM17.8278 4.71747C16.9851 4.72065 16.1622 4.97345 15.463 5.44396C14.7639 5.91446 14.2198 6.58158 13.8995 7.36107C13.5792 8.14057 13.4971 8.99749 13.6634 9.82364C13.8298 10.6498 14.2372 11.4081 14.8342 12.0029C15.4312 12.5977 16.1911 13.0022 17.0179 13.1655C17.8447 13.3287 18.7013 13.2433 19.4795 12.9201C20.2578 12.5968 20.9229 12.0502 21.3907 11.3493C21.8586 10.6484 22.1083 9.82452 22.1083 8.98179C22.1166 8.41813 22.0114 7.85857 21.799 7.3364C21.5866 6.81423 21.2714 6.34011 20.872 5.94226C20.4726 5.54441 19.9973 5.23095 19.4744 5.02054C18.9514 4.81013 18.3914 4.70706 17.8278 4.71747ZM17.8278 11.5663C17.3088 11.6033 16.7907 11.4832 16.341 11.2216C15.8912 10.96 15.5306 10.5691 15.3061 10.0997C15.0816 9.63032 15.0037 9.10421 15.0824 8.5899C15.1611 8.07558 15.3928 7.59687 15.7474 7.2161C16.102 6.83532 16.563 6.57012 17.0704 6.45503C17.5778 6.33993 18.1081 6.38027 18.5923 6.57079C19.0765 6.76131 19.4921 7.09318 19.785 7.52321C20.0779 7.95323 20.2345 8.46148 20.2346 8.98179C20.2503 9.31049 20.2001 9.63903 20.087 9.94805C19.9739 10.2571 19.8001 10.5403 19.5758 10.7812C19.3515 11.022 19.0813 11.2155 18.7811 11.3504C18.481 11.4852 18.1568 11.5586 17.8278 11.5663ZM6.71983 6.02591V7.83497H11.0489C10.9864 8.68351 10.6392 9.48607 10.0635 10.1126C9.62969 10.5548 9.10799 10.9011 8.53206 11.1292C7.95614 11.3574 7.33878 11.4622 6.71983 11.437C5.45448 11.4199 4.24677 10.9052 3.35803 10.0044C2.46929 9.10352 1.97101 7.88895 1.97101 6.62349C1.97101 5.35802 2.46929 4.14345 3.35803 3.2426C4.24677 2.34174 5.45448 1.82707 6.71983 1.80993C7.93524 1.79405 9.10782 2.25841 9.98281 3.10213L11.2589 1.82608C10.6618 1.23503 9.95284 0.769133 9.17341 0.455698C8.39398 0.142263 7.55982 -0.0124006 6.71983 0.000776441C5.84201 -0.0120037 4.97041 0.149856 4.1557 0.476943C3.341 0.80403 2.59944 1.28982 1.97416 1.90606C1.34888 2.5223 0.852355 3.2567 0.513442 4.06656C0.17453 4.87642 0 5.74557 0 6.62349C0 7.5014 0.17453 8.37055 0.513442 9.18041C0.852355 9.99027 1.34888 10.7247 1.97416 11.3409C2.59944 11.9572 3.341 12.4429 4.1557 12.77C4.97041 13.0971 5.84201 13.259 6.71983 13.2462C7.57754 13.2818 8.43302 13.1345 9.22949 12.8143C10.026 12.494 10.7452 12.008 11.3396 11.3886C12.3948 10.2368 12.9572 8.71781 12.9065 7.15659C12.9106 6.77745 12.8781 6.3988 12.8094 6.02591H6.71983ZM52.1475 7.43111C51.8913 6.65871 51.4034 5.98393 50.7503 5.49843C50.0972 5.01294 49.3104 4.74027 48.4969 4.71747C47.949 4.72087 47.4075 4.83534 46.9051 5.05396C46.4027 5.27257 45.9498 5.59079 45.5739 5.98939C45.1979 6.38798 44.9067 6.85867 44.7179 7.373C44.529 7.88733 44.4463 8.43462 44.475 8.98179C44.4626 9.54244 44.5634 10.0998 44.7713 10.6207C44.9792 11.1415 45.2899 11.6151 45.685 12.0131C46.08 12.4112 46.5512 12.7255 47.0704 12.9374C47.5897 13.1492 48.1463 13.2543 48.707 13.2462C49.4095 13.2501 50.102 13.0794 50.7222 12.7496C51.3424 12.4197 51.871 11.941 52.2605 11.3563L50.8068 10.3872C50.589 10.7489 50.281 11.0477 49.9128 11.2544C49.5447 11.4611 49.1292 11.5686 48.707 11.5663C48.2726 11.5829 47.8431 11.4686 47.4744 11.2382C47.1058 11.0078 46.8148 10.6719 46.6394 10.2741L52.3415 7.91578L52.1475 7.43111ZM46.3326 8.85264C46.3125 8.54227 46.3545 8.23101 46.4562 7.93707C46.5578 7.64314 46.7171 7.37243 46.9247 7.1408C47.1322 6.90916 47.3839 6.72125 47.6649 6.58806C47.946 6.45487 48.2508 6.37907 48.5615 6.36511C48.8851 6.34382 49.2077 6.41825 49.4892 6.57911C49.7707 6.73997 49.9987 6.98014 50.1446 7.26968L46.3326 8.85264ZM41.6966 12.9877H43.5703V0.453166H41.6966V12.9877ZM38.6275 5.67048H38.5629C38.2781 5.36098 37.9304 5.11586 37.5432 4.95151C37.156 4.78716 36.7382 4.70737 36.3176 4.71747C35.218 4.76427 34.179 5.23401 33.4175 6.02861C32.656 6.82321 32.2309 7.88125 32.2309 8.98184C32.2309 10.0824 32.656 11.1405 33.4175 11.9351C34.179 12.7297 35.218 13.1994 36.3176 13.2462C36.7398 13.2574 37.1594 13.1765 37.5471 13.0092C37.9349 12.8418 38.2815 12.592 38.5629 12.277H38.6275V12.8909C38.6275 14.5223 37.7553 15.3945 36.3499 15.3945C35.8815 15.3833 35.4271 15.2329 35.0445 14.9625C34.662 14.6921 34.3685 14.3139 34.2017 13.8761L32.5702 14.5546C32.8777 15.3033 33.4017 15.943 34.0751 16.392C34.7485 16.8409 35.5406 17.0786 36.3499 17.0745C38.5468 17.0745 40.4044 15.7823 40.4044 12.6324V4.97585H38.6275V5.67048ZM36.4793 11.5663C35.8316 11.5114 35.2282 11.2153 34.7885 10.7367C34.3487 10.2581 34.1047 9.6318 34.1047 8.98184C34.1047 8.33187 34.3487 7.7056 34.7885 7.22699C35.2282 6.74837 35.8316 6.45231 36.4793 6.39739C36.8015 6.41312 37.1172 6.49356 37.4076 6.63392C37.6981 6.77428 37.9573 6.97169 38.1698 7.21436C38.3824 7.45704 38.5439 7.74003 38.6447 8.04645C38.7455 8.35288 38.7836 8.67646 38.7567 8.99793C38.7819 9.3174 38.7424 9.63867 38.6406 9.94252C38.5388 10.2464 38.3767 10.5266 38.1641 10.7663C37.9515 11.0061 37.6927 11.2005 37.4032 11.338C37.1137 11.4754 36.7994 11.5531 36.4793 11.5663ZM60.9245 0.453367H56.4415V12.9877H58.3121V8.23883H60.9245C61.4537 8.26784 61.9832 8.18866 62.4807 8.00614C62.9782 7.82362 63.4333 7.54158 63.8181 7.17726C64.203 6.81293 64.5095 6.37397 64.719 5.88719C64.9285 5.40042 65.0365 4.87604 65.0365 4.3461C65.0365 3.81616 64.9285 3.29178 64.719 2.805C64.5095 2.31823 64.203 1.87927 63.8181 1.51494C63.4333 1.15062 62.9782 0.86858 62.4807 0.686057C61.9832 0.503534 61.4537 0.424358 60.9245 0.453367ZM60.9728 6.49445H58.3121V2.19785H60.9728C61.2587 2.19193 61.5429 2.24312 61.8087 2.34842C62.0745 2.45372 62.3167 2.61101 62.5209 2.81109C62.7252 3.01116 62.8875 3.24999 62.9983 3.51358C63.109 3.77717 63.1661 4.06022 63.1661 4.34615C63.1661 4.63207 63.109 4.91512 62.9983 5.17871C62.8875 5.44231 62.7252 5.68113 62.5209 5.88121C62.3167 6.08128 62.0745 6.23858 61.8087 6.34388C61.5429 6.44918 61.2587 6.50037 60.9728 6.49445ZM72.5349 4.69442C71.8521 4.65455 71.1725 4.8149 70.5795 5.15578C69.9866 5.49666 69.506 6.00324 69.1969 6.61336L70.8578 7.30678C71.0225 7.00396 71.2719 6.75572 71.5755 6.59246C71.8791 6.4292 72.2237 6.35799 72.5671 6.38757C73.0417 6.34123 73.5153 6.48496 73.8841 6.78723C74.2529 7.0895 74.4868 7.52566 74.5345 8.0001V8.12914C73.9337 7.80997 73.2635 7.64381 72.5833 7.64537C70.7934 7.64537 68.9712 8.62906 68.9712 10.4674C68.9886 10.8548 69.0836 11.2348 69.2506 11.5848C69.4177 11.9348 69.6533 12.2477 69.9436 12.5048C70.2339 12.762 70.5728 12.9583 70.9404 13.082C71.308 13.2057 71.6967 13.2542 72.0833 13.2248C72.5544 13.2526 73.0243 13.1535 73.444 12.938C73.8638 12.7224 74.2181 12.3983 74.47 11.9993H74.5345V12.9669H76.3405V8.16143C76.3405 5.93608 74.6796 4.69442 72.5349 4.69442ZM72.3091 11.5639C71.6963 11.5639 70.8417 11.2576 70.8417 10.4996C70.8417 9.53213 71.906 9.16116 72.8252 9.16116C73.4222 9.14526 74.0126 9.29007 74.5345 9.58046C74.4658 10.1241 74.2025 10.6245 73.7935 10.9891C73.3844 11.3538 72.8571 11.5579 72.3091 11.5639ZM82.9198 4.96854L80.7751 10.4028H80.7105L78.4853 4.96854H76.4696L79.8075 12.5637L77.9048 16.7886H79.8559L85 4.96854H82.9198ZM66.0685 12.9877H67.9391V0.453367H66.0685V12.9877Z" fill="white"/>
</svg>
