<svg width="7" height="7" viewBox="0 0 7 7" fill="none" xmlns="http://www.w3.org/2000/svg">
<path d="M6.67157 3.76232C6.69123 4.1593 6.62989 4.55613 6.49129 4.92866C6.35269 5.30118 6.13972 5.6416 5.86536 5.92918C5.55788 6.24808 5.18653 6.49846 4.77562 6.66396C4.36471 6.82945 3.92349 6.90633 3.48082 6.88956C3.03533 6.89355 2.59353 6.80844 2.1814 6.63925C1.76927 6.47005 1.39512 6.22018 1.08094 5.90432C0.766756 5.58845 0.51889 5.21297 0.351899 4.79994C0.184909 4.38691 0.102165 3.94467 0.108535 3.49921C0.102216 3.05373 0.184988 2.61148 0.35199 2.19845C0.518992 1.78541 0.766852 1.40991 1.08102 1.09402C1.39518 0.778121 1.76931 0.528195 2.18142 0.358923C2.59353 0.18965 3.03532 0.104445 3.48082 0.108313C3.93886 0.106929 4.39231 0.199535 4.81314 0.380402C5.20397 0.538832 5.55186 0.78734 5.82847 1.10569L5.25789 1.67669C5.04046 1.42078 4.76714 1.21824 4.45903 1.0847C4.15091 0.951165 3.81623 0.890201 3.48082 0.906514C3.14319 0.904768 2.80868 0.971179 2.49732 1.10177C2.18597 1.23237 1.90417 1.42445 1.66881 1.66653C1.43345 1.90861 1.24937 2.1957 1.12758 2.51061C1.0058 2.82551 0.948825 3.16176 0.960069 3.49921C0.952019 4.00465 1.09425 4.5011 1.36872 4.92561C1.64318 5.35011 2.03753 5.68355 2.50176 5.88364C2.96598 6.08373 3.47916 6.14146 3.97624 6.04951C4.47331 5.95756 4.93189 5.72007 5.29381 5.36716C5.6269 5.00823 5.81998 4.5416 5.83788 4.05226H3.48082V3.27256H6.62613C6.65587 3.43412 6.67107 3.59803 6.67157 3.76232Z" fill="white" stroke="white" stroke-width="0.2" stroke-miterlimit="10"/>
</svg>
