<svg width="7" height="7" viewBox="0 0 7 7" fill="none" xmlns="http://www.w3.org/2000/svg">
<path d="M5.82674 5.90781C5.19471 6.53794 4.33863 6.89178 3.44615 6.89178C2.55367 6.89178 1.69759 6.53794 1.06556 5.90781C0.752887 5.59112 0.50709 5.21479 0.342776 4.80119C0.178462 4.3876 0.0989897 3.94519 0.109084 3.50027C0.0989897 3.05535 0.178462 2.61294 0.342776 2.19935C0.50709 1.78575 0.752887 1.40942 1.06556 1.09273C1.37795 0.780255 1.74891 0.532457 2.15719 0.363522C2.56547 0.194587 3.00307 0.107833 3.44492 0.108225C3.88677 0.108617 4.3242 0.196148 4.73219 0.365807C5.14017 0.535466 5.51068 0.783922 5.82252 1.09695C6.13542 1.41281 6.38169 1.7883 6.54671 2.20114C6.71174 2.61398 6.79217 3.05576 6.78322 3.50027C6.79304 3.94516 6.71344 4.38749 6.54914 4.80104C6.38484 5.21459 6.13919 5.59095 5.82674 5.90781ZM1.68167 5.36409C2.14977 5.8314 2.78418 6.09386 3.44561 6.09386C4.10704 6.09386 4.74144 5.8314 5.20954 5.36409C5.44959 5.11834 5.63731 4.82647 5.76138 4.50612C5.88545 4.18577 5.94329 3.8436 5.93139 3.50027C5.94329 3.15694 5.88545 2.81477 5.76138 2.49442C5.63731 2.17407 5.44959 1.8822 5.20954 1.63645C4.74144 1.16914 4.10704 0.906685 3.44561 0.906685C2.78418 0.906685 2.14977 1.16914 1.68167 1.63645C1.44197 1.8824 1.25454 2.17432 1.13067 2.49464C1.0068 2.81496 0.949048 3.15704 0.960904 3.50027C0.949048 3.8435 1.0068 4.18558 1.13067 4.5059C1.25454 4.82622 1.44197 5.11814 1.68167 5.36409Z" fill="white" stroke="white" stroke-width="0.2" stroke-miterlimit="10"/>
</svg>
